<svg width="39" height="39" viewBox="0 0 39 39" fill="none" xmlns="http://www.w3.org/2000/svg">
<path d="M31.5412 21.125C31.1837 21.125 30.81 21.0112 30.4525 20.93C29.7291 20.7682 29.0178 20.5565 28.3237 20.2962C27.5699 20.022 26.7412 20.0362 25.9972 20.3362C25.2532 20.6362 24.6465 21.2008 24.2937 21.9212L23.9362 22.6687C22.3581 21.7737 20.9001 20.6816 19.5975 19.4187C18.3346 18.1161 17.2425 16.6582 16.3475 15.08L17.095 14.7387C17.8154 14.386 18.38 13.7792 18.68 13.0352C18.98 12.2913 18.9942 11.4626 18.72 10.7087C18.4619 10.0084 18.2502 9.29188 18.0862 8.56375C18.005 8.20625 17.94 7.8325 17.8912 7.475C17.6939 6.33038 17.0944 5.29383 16.2006 4.55201C15.3069 3.8102 14.1776 3.41186 13.0162 3.42875H8.12497C7.438 3.42785 6.75859 3.57215 6.13129 3.8522C5.50399 4.13224 4.94296 4.54171 4.48497 5.05375C4.01749 5.57969 3.66941 6.20059 3.46464 6.87381C3.25987 7.54702 3.20327 8.25659 3.29872 8.95375C4.18205 15.7172 7.27219 22.0003 12.09 26.8287C16.9184 31.6465 23.2015 34.7367 29.965 35.62C30.1759 35.6361 30.3878 35.6361 30.5987 35.62C31.797 35.6218 32.954 35.1821 33.8487 34.385C34.3608 33.927 34.7702 33.366 35.0503 32.7387C35.3303 32.1114 35.4746 31.432 35.4737 30.745V25.87C35.465 24.7472 35.0689 23.6618 34.3524 22.7973C33.6359 21.9327 32.6429 21.342 31.5412 21.125ZM32.3375 30.875C32.3369 31.1018 32.289 31.3259 32.1966 31.533C32.1042 31.7401 31.9696 31.9256 31.8012 32.0775C31.6231 32.2398 31.4112 32.3604 31.1807 32.4306C30.9503 32.5009 30.7071 32.519 30.4687 32.4837C24.4047 31.6918 18.7691 28.9282 14.43 24.6187C10.0871 20.2759 7.29952 14.6207 6.49997 8.53125C6.46467 8.29292 6.48281 8.04972 6.55307 7.81926C6.62333 7.5888 6.74396 7.37685 6.90622 7.19875C7.05998 7.02837 7.24809 6.89249 7.45815 6.80007C7.66822 6.70764 7.89548 6.66075 8.12497 6.6625H13C13.3756 6.65332 13.7428 6.7746 14.0391 7.0057C14.3354 7.2368 14.5424 7.56343 14.625 7.93C14.625 8.36875 14.7712 8.82375 14.8687 9.2625C15.0565 10.1138 15.3064 10.9502 15.6162 11.765L13.3412 12.8375C12.9502 13.017 12.6463 13.3443 12.4962 13.7475C12.3337 14.1431 12.3337 14.5869 12.4962 14.9825C14.8349 19.992 18.8617 24.0188 23.8712 26.3575C24.2668 26.52 24.7106 26.52 25.1062 26.3575C25.5095 26.2074 25.8367 25.9035 26.0162 25.5125L27.04 23.2375C27.8783 23.5432 28.736 23.7929 29.6075 23.985C30.03 24.0825 30.485 24.1637 30.9237 24.2287C31.2903 24.3113 31.6169 24.5183 31.848 24.8146C32.0791 25.1109 32.2004 25.4781 32.1912 25.8537L32.3375 30.875ZM22.75 3.25C22.3762 3.25 21.9862 3.25 21.6125 3.25C21.1815 3.28663 20.7827 3.49297 20.5039 3.82362C20.225 4.15427 20.089 4.58215 20.1256 5.01312C20.1622 5.4441 20.3686 5.84287 20.6992 6.12172C21.0299 6.40056 21.4577 6.53663 21.8887 6.5H22.75C25.3358 6.5 27.8158 7.52723 29.6443 9.35571C31.4727 11.1842 32.5 13.6641 32.5 16.25C32.5 16.5425 32.5 16.8187 32.5 17.1112C32.4639 17.5399 32.5994 17.9654 32.8766 18.2944C33.1538 18.6234 33.5501 18.829 33.9787 18.8662H34.1087C34.5155 18.8679 34.9081 18.7169 35.209 18.4431C35.5099 18.1693 35.6971 17.7926 35.7337 17.3875C35.7337 17.0137 35.7337 16.6237 35.7337 16.25C35.7337 12.805 34.3663 9.50086 31.9319 7.06335C29.4974 4.62585 26.195 3.25431 22.75 3.25ZM26 16.25C26 16.681 26.1712 17.0943 26.4759 17.399C26.7807 17.7038 27.194 17.875 27.625 17.875C28.056 17.875 28.4693 17.7038 28.774 17.399C29.0788 17.0943 29.25 16.681 29.25 16.25C29.25 14.5261 28.5652 12.8728 27.3462 11.6538C26.1272 10.4348 24.4739 9.75 22.75 9.75C22.319 9.75 21.9057 9.9212 21.6009 10.226C21.2962 10.5307 21.125 10.944 21.125 11.375C21.125 11.806 21.2962 12.2193 21.6009 12.524C21.9057 12.8288 22.319 13 22.75 13C23.6119 13 24.4386 13.3424 25.0481 13.9519C25.6576 14.5614 26 15.388 26 16.25Z" fill="#324152"/>
</svg>
