<svg width="50" height="50" viewBox="0 0 50 50" fill="none" xmlns="http://www.w3.org/2000/svg">
<path d="M29.3171 36.2069H10.3516C7.49989 36.2069 5.1792 33.8862 5.1792 31.0345V18.9655C5.1792 16.1138 7.49989 13.7931 10.3516 13.7931H29.3171C32.1689 13.7931 34.4895 16.1138 34.4895 18.9655V31.0345C34.4895 33.8862 32.1689 36.2069 29.3171 36.2069ZM10.3516 17.2414C9.89434 17.2414 9.4558 17.423 9.13246 17.7464C8.80912 18.0697 8.62748 18.5082 8.62748 18.9655V31.0345C8.62748 31.4917 8.80912 31.9303 9.13246 32.2536C9.4558 32.577 9.89434 32.7586 10.3516 32.7586H29.3171C29.7744 32.7586 30.2129 32.577 30.5363 32.2536C30.8596 31.9303 31.0413 31.4917 31.0413 31.0345V18.9655C31.0413 18.5082 30.8596 18.0697 30.5363 17.7464C30.2129 17.423 29.7744 17.2414 29.3171 17.2414H10.3516Z" fill="#324152"/>
<path d="M37.9344 33.7708C37.0378 33.7708 36.162 33.4207 35.4999 32.7587L31.5464 28.8052C31.3861 28.6453 31.2589 28.4553 31.1722 28.2462C31.0855 28.037 31.041 27.8127 31.0413 27.5863V22.4139C31.0413 21.9552 31.2223 21.5173 31.5464 21.1949L35.4999 17.2414C35.9812 16.7575 36.5958 16.4279 37.2652 16.2947C37.9346 16.1614 38.6285 16.2305 39.2585 16.4932C39.8893 16.7532 40.4284 17.195 40.8073 17.7624C41.1861 18.3298 41.3876 18.9971 41.3861 19.6794V30.3208C41.3877 30.7744 41.2995 31.2239 41.1266 31.6433C40.9536 32.0627 40.6994 32.4437 40.3786 32.7644C40.0577 33.0851 39.6765 33.3392 39.257 33.5119C38.8375 33.6846 38.388 33.7726 37.9344 33.7708ZM34.4895 26.8725L37.9378 30.3208V19.6794L34.4895 23.1276V26.8725Z" fill="#324152"/>
<path d="M44.8345 33.7672C44.3772 33.7672 43.9387 33.5855 43.6153 33.2622C43.292 32.9389 43.1104 32.5003 43.1104 32.0431V17.9517C43.1104 17.4944 43.292 17.0559 43.6153 16.7325C43.9387 16.4092 44.3772 16.2275 44.8345 16.2275C45.2918 16.2275 45.7303 16.4092 46.0536 16.7325C46.377 17.0559 46.5586 17.4944 46.5586 17.9517V32.0431C46.5586 32.5003 46.377 32.9389 46.0536 33.2622C45.7303 33.5855 45.2918 33.7672 44.8345 33.7672Z" fill="#324152"/>
<path d="M6.88968 20.6879H5.16554C4.70827 20.6879 4.26973 20.5063 3.94639 20.1829C3.62306 19.8596 3.44141 19.421 3.44141 18.9638C3.44141 18.5065 3.62306 18.068 3.94639 17.7446C4.26973 17.4213 4.70827 17.2396 5.16554 17.2396H6.88968C7.34695 17.2396 7.78549 17.4213 8.10883 17.7446C8.43217 18.068 8.61382 18.5065 8.61382 18.9638C8.61382 19.421 8.43217 19.8596 8.10883 20.1829C7.78549 20.5063 7.34695 20.6879 6.88968 20.6879Z" fill="#324152"/>
</svg>
