<svg width="31" height="31" viewBox="0 0 31 31" fill="none" xmlns="http://www.w3.org/2000/svg">
<path d="M19.22 26.66C19.22 24.6084 17.5516 22.94 15.5 22.94C13.4484 22.94 11.78 24.6084 11.78 26.66C11.78 28.7116 13.4484 30.38 15.5 30.38C17.5516 30.38 19.22 28.7116 19.22 26.66ZM13.02 26.66C13.02 25.2923 14.1323 24.18 15.5 24.18C16.8677 24.18 17.98 25.2923 17.98 26.66C17.98 28.0277 16.8677 29.14 15.5 29.14C14.1323 29.14 13.02 28.0277 13.02 26.66ZM15.5 19.22C17.5516 19.22 19.22 17.5516 19.22 15.5C19.22 13.4484 17.5516 11.78 15.5 11.78C13.4484 11.78 11.78 13.4484 11.78 15.5C11.78 17.5516 13.4484 19.22 15.5 19.22ZM15.5 13.02C16.8677 13.02 17.98 14.1323 17.98 15.5C17.98 16.8677 16.8677 17.98 15.5 17.98C14.1323 17.98 13.02 16.8677 13.02 15.5C13.02 14.1323 14.1323 13.02 15.5 13.02ZM11.78 4.34001C11.78 6.39159 13.4484 8.06001 15.5 8.06001C17.5516 8.06001 19.22 6.39159 19.22 4.34001C19.22 2.28843 17.5516 0.62001 15.5 0.62001C13.4484 0.62001 11.78 2.28843 11.78 4.34001ZM17.98 4.34001C17.98 5.70773 16.8677 6.82001 15.5 6.82001C14.1323 6.82001 13.02 5.70773 13.02 4.34001C13.02 2.97229 14.1323 1.86001 15.5 1.86001C16.8677 1.86001 17.98 2.97229 17.98 4.34001Z" fill="#324152"/>
</svg>
