<svg width="33" height="33" viewBox="0 0 33 33" fill="none" xmlns="http://www.w3.org/2000/svg">
<path d="M32.5739 9.46956L23.5336 0.430435C22.9596 -0.143478 22.0627 -0.143478 21.4887 0.430435C21.3811 0.538043 18.7623 3.22826 19.7668 6.74348L15.6771 10.8326C13.417 10.1511 7.64123 8.96739 3.37219 13.2359C2.7982 13.8098 2.7982 14.7065 3.37219 15.2804L9.54257 21.45L0.430492 30.5609C-0.143497 31.1348 -0.143497 32.0315 0.430492 32.6054C0.717487 32.8565 1.07623 33 1.43497 33C1.79372 33 2.15246 32.8565 2.43945 32.5696L11.5515 23.4587L17.7219 29.6283C18.0089 29.9152 18.3677 30.0587 18.7264 30.0587C19.0851 30.0587 19.4439 29.9152 19.7309 29.6283C23.9999 25.3598 22.8161 19.5489 22.1345 17.325L26.2241 13.2359C29.7398 14.2402 32.3945 11.6217 32.538 11.5141C33.1479 10.9402 33.1479 10.0435 32.5739 9.46956ZM26.5111 10.2587C25.973 10.0076 25.3273 10.1152 24.8968 10.5457L19.5156 15.9261C19.121 16.3207 18.9775 16.9663 19.1928 17.4685C19.1928 17.4685 19.8385 19.0826 19.9461 21.163C20.0537 23.2435 19.6233 25.0011 18.6547 26.4717L12.556 20.4457L6.45738 14.3478C10.2959 11.7652 15.2466 13.7022 15.4618 13.8098C16 14.025 16.6098 13.9174 17.0403 13.487L22.4215 8.10652C22.8519 7.67609 22.9596 7.03044 22.7084 6.49239C22.2062 5.4163 22.3856 4.44783 22.7084 3.69457L29.3093 10.2946C28.5918 10.5815 27.5874 10.7609 26.5111 10.2587ZM18.0089 18.0424C18.0448 18.15 18.5112 19.1902 18.4753 20.3022C18.4753 20.9837 17.9013 21.5217 17.2197 21.5217H17.1838C16.5022 21.4859 15.9282 20.912 15.9641 20.2304C15.9641 19.7641 15.7847 19.2261 15.713 19.0467C15.426 18.4011 15.713 17.6837 16.3587 17.3967C17.0044 17.1457 17.7578 17.3967 18.0089 18.0424Z" fill="#324152"/>
</svg>
