<svg width="39" height="39" viewBox="0 0 39 39" fill="none" xmlns="http://www.w3.org/2000/svg">
<path d="M19.5 24.375C22.1924 24.375 24.375 22.1924 24.375 19.5C24.375 16.8076 22.1924 14.625 19.5 14.625C16.8076 14.625 14.625 16.8076 14.625 19.5C14.625 22.1924 16.8076 24.375 19.5 24.375Z" stroke="#324152" stroke-width="3" stroke-linecap="round" stroke-linejoin="round"/>
<path fill-rule="evenodd" clip-rule="evenodd" d="M31.525 24.375C31.3087 24.8651 31.2442 25.4088 31.3397 25.936C31.4353 26.4631 31.6866 26.9495 32.0612 27.3325L32.1588 27.43C32.7686 28.0398 33.1112 28.8669 33.1112 29.7294C33.1112 30.5918 32.7686 31.4189 32.1588 32.0287C31.5489 32.6386 30.7218 32.9812 29.8594 32.9812C28.9969 32.9812 28.1698 32.6386 27.56 32.0287L27.4625 31.9312C27.0795 31.5566 26.5931 31.3053 26.066 31.2097C25.5388 31.1142 24.9951 31.1787 24.505 31.395C24.0244 31.601 23.6145 31.943 23.3257 32.379C23.037 32.815 22.8821 33.3258 22.88 33.8487V34.125C22.88 34.987 22.5376 35.8136 21.9281 36.4231C21.3186 37.0326 20.492 37.375 19.63 37.375C18.768 37.375 17.9414 37.0326 17.3319 36.4231C16.7224 35.8136 16.38 34.987 16.38 34.125V33.9787C16.3674 33.4409 16.1933 32.9192 15.8803 32.4816C15.5673 32.044 15.1299 31.7107 14.625 31.525C14.1349 31.3087 13.5912 31.2442 13.064 31.3397C12.5369 31.4353 12.0505 31.6866 11.6675 32.0612L11.57 32.1588C10.9602 32.7686 10.1331 33.1112 9.27062 33.1112C8.40819 33.1112 7.58108 32.7686 6.97125 32.1588C6.36142 31.5489 6.01882 30.7218 6.01882 29.8594C6.01882 28.9969 6.36142 28.1698 6.97125 27.56L7.06875 27.4625C7.44337 27.0795 7.69468 26.5931 7.79026 26.066C7.88584 25.5388 7.82131 24.9951 7.605 24.505C7.39901 24.0244 7.05698 23.6145 6.62101 23.3257C6.18503 23.037 5.67415 22.8821 5.15125 22.88H4.875C4.01305 22.88 3.1864 22.5376 2.5769 21.9281C1.96741 21.3186 1.625 20.492 1.625 19.63C1.625 18.768 1.96741 17.9414 2.5769 17.3319C3.1864 16.7224 4.01305 16.38 4.875 16.38H5.02125C5.55912 16.3674 6.08076 16.1933 6.51836 15.8803C6.95596 15.5673 7.28929 15.1299 7.475 14.625C7.69131 14.1349 7.75584 13.5912 7.66026 13.064C7.56468 12.5369 7.31337 12.0505 6.93875 11.6675L6.84125 11.57C6.23142 10.9602 5.88882 10.1331 5.88882 9.27062C5.88882 8.40819 6.23142 7.58108 6.84125 6.97125C7.45108 6.36142 8.27819 6.01882 9.14062 6.01882C10.0031 6.01882 10.8302 6.36142 11.44 6.97125L11.5375 7.06875C11.9205 7.44337 12.4069 7.69468 12.934 7.79026C13.4612 7.88584 14.0049 7.82131 14.495 7.605H14.625C15.1056 7.39901 15.5155 7.05698 15.8043 6.62101C16.093 6.18503 16.2479 5.67415 16.25 5.15125V4.875C16.25 4.01305 16.5924 3.1864 17.2019 2.5769C17.8114 1.96741 18.638 1.625 19.5 1.625C20.362 1.625 21.1886 1.96741 21.7981 2.5769C22.4076 3.1864 22.75 4.01305 22.75 4.875V5.02125C22.7521 5.54415 22.907 6.05504 23.1957 6.49101C23.4845 6.92698 23.8944 7.26901 24.375 7.475C24.8651 7.69131 25.4088 7.75584 25.936 7.66026C26.4631 7.56468 26.9495 7.31337 27.3325 6.93875L27.43 6.84125C28.0398 6.23142 28.8669 5.88882 29.7294 5.88882C30.5918 5.88882 31.4189 6.23142 32.0287 6.84125C32.6386 7.45108 32.9812 8.27819 32.9812 9.14062C32.9812 10.0031 32.6386 10.8302 32.0287 11.44L31.9312 11.5375C31.5566 11.9205 31.3053 12.4069 31.2097 12.934C31.1142 13.4612 31.1787 14.0049 31.395 14.495V14.625C31.8175 15.6065 32.7795 16.2451 33.8487 16.25H34.125C34.987 16.25 35.8136 16.5924 36.4231 17.2019C37.0326 17.8114 37.375 18.638 37.375 19.5C37.375 20.362 37.0326 21.1886 36.4231 21.7981C35.8136 22.4076 34.987 22.75 34.125 22.75H33.9787C33.4558 22.7521 32.945 22.907 32.509 23.1957C32.073 23.4845 31.731 23.8944 31.525 24.375Z" stroke="#324152" stroke-width="3" stroke-linecap="round" stroke-linejoin="round"/>
</svg>
